#!OML:ASF F:\VICON\USERDATA\INSTALL\rory3\rory3.ASF
:FULLY-SPECIFIED
:DEGREES
852
root 4.11411 18.4939 -2.8156 -157.088 -81.6352 157.336
lowerback 5.94327 4.8601 0.270002
upperback 2.85369 6.407 -0.812258
thorax -0.253073 3.18312 -1.36277
lowerneck -2.76516 -15.6705 -12.9204
upperneck 11.2919 -21.6335 9.14909
head 6.26476 -10.682 3.0646
rclavicle -6.81831e-014 9.54166e-015
rhumerus 56.1864 76.8227 -43.4437
rradius 40.4974
rwrist -4.30686
rhand -17.0289 1.05237
rfingers 7.12502
rthumb 9.20742 -28.7266
lclavicle -6.81831e-014 9.54166e-015
lhumerus 1.23837 27.8888 32.8376
lradius 58.1803
lwrist -15.9363
lhand -38.4309 19.4314
lfingers 7.12502
lthumb -11.4549 49.0985
rfemur -9.66496 17.3394 16.2101
rtibia 32.8582
rfoot -23.18 -7.57126
rtoes 5.22761
lfemur -17.2303 0.971026 -8.84484
ltibia 31.0259
lfoot -11.0462 10.4689
ltoes -11.4239
853
root 4.16008 18.5005 -2.8161 -154.544 -81.7727 154.742
lowerback 6.10662 4.99773 -0.0276055
upperback 2.91908 6.56287 -1.20972
thorax -0.258235 3.25842 -1.62487
lowerneck -2.22005 -16.456 -12.3946
upperneck 10.741 -22.8368 9.69102
head 6.13792 -11.2444 3.06467
rclavicle -3.8763e-015 3.97569e-016
rhumerus 43.508 76.8103 -54.6219
rradius 39.4633
rwrist -4.72904
rhand -16.1543 1.35105
rfingers 7.12502
rthumb 10.0513 -28.3889
lclavicle -3.8763e-015 3.97569e-016
lhumerus 1.75852 27.5721 32.1866
lradius 58.3372
lwrist -16.047
lhand -38.3237 19.3999
lfingers 7.12502
lthumb -11.3514 49.0726
rfemur -9.75514 17.224 15.8781
rtibia 32.8723
rfoot -23.0882 -7.61373
rtoes 5.17672
lfemur -17.0062 1.23066 -9.33413
ltibia 31.6118
lfoot -10.8676 11.2266
ltoes -12.5493
854
root 4.1978 18.512 -2.81607 -151.683 -81.8614 151.651
lowerback 6.32356 4.88164 -0.74648
upperback 3.09084 6.35802 -1.21749
thorax -0.284012 3.14483 -1.2398
lowerneck -2.01958 -16.9364 -12.6113
upperneck 10.4706 -23.5397 10.1069
head 6.17414 -11.5803 3.13759
rclavicle -1.03418e-013 1.03368e-014
rhumerus 33.4132 76.9979 -62.9089
rradius 38.6113
rwrist -5.39098
rhand -15.3579 1.27465
rfingers 7.12502
rthumb 10.8195 -28.4267
lclavicle -1.03418e-013 1.03368e-014
lhumerus 0.954894 27.781 31.2384
lradius 58.8325
lwrist -16.1144
lhand -38.1599 19.789
lfingers 7.12502
lthumb -11.1935 49.4704
rfemur -9.55559 17.0986 15.5322
rtibia 32.8003
rfoot -23.0447 -7.63204
rtoes 5.02436
lfemur -16.5321 1.50402 -9.90983
ltibia 32.1948
lfoot -10.8229 12.1228
ltoes -13.4541
855
root 4.23988 18.5256 -2.81329 -149.66 -82.1368 149.502
lowerback 6.46197 4.45166 -1.46629
upperback 3.3443 5.74142 -0.860617
thorax -0.216129 2.82194 -0.442353
lowerneck -2.4165 -17.0962 -13.4107
upperneck 10.4823 -23.7018 10.3857
head 6.39112 -11.6485 3.24192
rclavicle 5.58088e-014 -1.23246e-014
rhumerus 26.2372 77.6252 -68.0208
rradius 37.8746
rwrist -6.41223
rhand -14.2408 1.32992
rfingers 7.12502
rthumb 11.8969 -28.3121
lclavicle 5.58088e-014 -1.23246e-014
lhumerus -1.08377 28.6662 30.0099
lradius 59.6556
lwrist -16.2081
lhand -38.1056 19.9557
lfingers 7.12502
lthumb -11.1411 49.64
rfemur -9.43104 17.0289 15.4252
rtibia 32.6863
rfoot -22.9591 -7.79547
rtoes 4.91991
lfemur -16.1675 1.47041 -10.186
ltibia 32.7527
lfoot -11.0281 13.0447
ltoes -13.2126
856
root 4.28669 18.5387 -2.80792 -147.576 -82.4428 147.385
lowerback 6.6972 4.40392 -1.90147
upperback 3.36599 5.64193 -0.902894
thorax -0.360373 2.76608 -0.258632
lowerneck -2.00888 -17.4844 -13.1612
upperneck 9.9846 -24.3155 10.8513
head 6.26893 -11.9391 3.31342
rclavicle 1.71452e-014 -6.36111e-015
rhumerus 15.4833 76.3589 -76.6595
rradius 37.0286
rwrist -7.30914
rhand -13.6742 1.45202
rfingers 7.12502
rthumb 12.4433 -28.1576
lclavicle 1.71452e-014 -6.36111e-015
lhumerus -1.69994 28.5651 29.1842
lradius 60.3286
lwrist -16.1713
lhand -38.0408 19.9081
lfingers 7.12502
lthumb -11.0786 49.5957
rfemur -9.38232 17.1293 15.3521
rtibia 32.5207
rfoot -22.9078 -8.12349
rtoes 5.21798
lfemur -15.9308 1.06444 -10.4055
ltibia 33.3538
lfoot -11.4917 14.1752
ltoes -12.5273
857
root 4.33391 18.5503 -2.80344 -145.302 -82.8197 145.141
lowerback 6.87302 4.3264 -2.32973
upperback 3.362 5.5043 -0.924079
thorax -0.497623 2.69232 -0.0497801
lowerneck -1.50926 -17.806 -12.994
upperneck 9.41746 -24.8421 11.4034
head 6.12357 -12.1956 3.4424
rclavicle -6.95746e-015 -1.03368e-014
rhumerus 7.31776 74.803 -82.4954
rradius 36.3123
rwrist -8.71901
rhand -14.3892 1.21193
rfingers 7.12502
rthumb 11.7538 -28.4383
lclavicle -6.95746e-015 -1.03368e-014
lhumerus -2.18396 28.5696 28.4155
lradius 60.84
lwrist -16.1555
lhand -38.1022 19.8685
lfingers 7.12502
lthumb -11.1378 49.5529
rfemur -9.42202 17.0149 15.315
rtibia 32.392
rfoot -22.8284 -8.42006
rtoes 5.31222
lfemur -15.8629 0.963571 -10.5566
ltibia 34.0951
lfoot -12.2281 15.0135
ltoes -9.83754
858
root 4.37817 18.5607 -2.79623 -143.762 -83.2924 143.705
lowerback 6.90271 4.06502 -2.57224
upperback 3.4076 5.14128 -0.845567
thorax -0.488983 2.50678 0.191382
lowerneck -1.33447 -17.9325 -13.1827
upperneck 9.12982 -25.0757 11.9522
head 6.13033 -12.3031 3.60712
rclavicle 2.38542e-014 -2.98177e-015
rhumerus 1.34573 73.2307 -86.3093
rradius 35.3987
rwrist -9.89201
rhand -14.3499 1.1123
rfingers 7.12502
rthumb 11.7917 -28.5357
lclavicle 2.38542e-014 -2.98177e-015
lhumerus -3.23078 28.854 27.3252
lradius 61.4029
lwrist -16.1241
lhand -38.0779 19.9323
lfingers 7.12502
lthumb -11.1144 49.6179
rfemur -9.53534 16.8022 15.4264
rtibia 32.2599
rfoot -22.7618 -8.66788
rtoes 5.37979
lfemur -15.907 1.2389 -10.5296
ltibia 34.856
lfoot -13.0847 15.5555
ltoes -6.1762
